<svg id="Layer_1" data-name="Layer 1" xmlns="http://www.w3.org/2000/svg" viewBox="0 0 572.04 562.34"><defs><style>.cls-1{fill:#94bbff;}</style></defs><path id="Path_66" data-name="Path 66" class="cls-1" d="M519.4,645c-69.87,55.41-110.24,19.18-183.88,42.9-42,13.51-77.49,55.57-129.18,37.67-38.87-13.47-68.75-53.18-79.64-92-5.09-18.15.83-41.87-5.24-59-12.52-35.41-41.71-51.06-67.19-78.46-29.35-31.6-51.1-67.89-39.46-114.78,11.35-45.75,54.52-68.75,76-108.45,22.44-41.55,15-80.84,66.93-100.28,41.29-15.45,79.09,10.33,118.64,11.17,101.12,2.17,164.46-37.34,217.54,79.38,22.21,48.83,25.65,104,50.88,149.61C589.58,493.8,612.1,571.5,519.4,645Z" transform="translate(-11.62 -167.62)"/></svg>