<svg xmlns="http://www.w3.org/2000/svg" viewBox="0 0 64 64"><title>Artboard-11</title><g id="Ribbon"><path d="M44.74,16.3A37.4162,37.4162,0,0,0,32,13.9751a37.4049,37.4049,0,0,0-12.7383,2.3242A82.9568,82.9568,0,0,1,14.9507,5.13,49.6075,49.6075,0,0,1,31.9961,2.0313,49.6779,49.6779,0,0,1,49.05,5.13,83.277,83.277,0,0,1,44.74,16.3Z" style="fill:#fff"/><path d="M15.03,54.2021,6.8477,50.2207a44.1112,44.1112,0,0,0,20.0034-9.6934l.1093-.0913.08-.1186c6.7613-5.6118,12.5655-13.3687,17.211-23.0034A86.0057,86.0057,0,0,0,49.0488,5.1309l.1114.04a11.56,11.56,0,0,1,6.7558,6.5025,11.9906,11.9906,0,0,1-.1933,9.6264l-.2281.4859C50.3853,32.6558,43.9,41.6074,36.2178,48.3906l-.1494.1319L36.06,48.54A56.3637,56.3637,0,0,1,9.15,61.998V62Z" style="fill:#9ac3f4"/><path d="M54.8467,61.9956c-25.0166-4.88-39.0108-24.5635-46.3516-40.22L8.28,21.3037a11.99,11.99,0,0,1-.1963-9.6294,11.5619,11.5619,0,0,1,6.7612-6.5054l.1866-.0668,2.0771,5.5073c2.2075,5.8564,2.2075,5.8564,2.5366,6.5l.11.2177c6.2007,12.8892,17.7275,29.0723,37.3935,32.8946l-8.1787,3.98Z" style="fill:#9ac3f4"/><path d="M57.3408,49.2227C38.2119,45.5048,26.88,29.8042,20.6459,16.8691a34.8389,34.8389,0,0,1,22.7007-.0026A75.8828,75.8828,0,0,1,33.8364,32a1,1,0,0,0,1.5469,1.2686A78.6261,78.6261,0,0,0,45.646,16.708,88.61,88.61,0,0,0,49.6831,6.4536,10.5584,10.5584,0,0,1,54.9912,12.04a11.0139,11.0139,0,0,1-.1743,8.8233l-.2217.4756A87.8269,87.8269,0,0,1,43.0283,39.8682a1,1,0,1,0,1.543,1.2724A89.83,89.83,0,0,0,56.4048,22.19l.227-.4868a13.0183,13.0183,0,0,0,.2066-10.43,12.5348,12.5348,0,0,0-7.3369-7.059,49.4783,49.4783,0,0,0-35.0044.0009,12.535,12.535,0,0,0-7.3355,7.0581,13.0176,13.0176,0,0,0,.2071,10.4307l.226.4844c7.4385,15.87,21.6416,35.8257,47.064,40.7773a.9812.9812,0,0,0,.1914.0186,1,1,0,0,0,.7983-1.6021L50.5,54.5522l7.0879-3.4487a1,1,0,0,0-.2466-1.8808ZM47.812,5.7362a83.0447,83.0447,0,0,1-3.6046,9.3026,37.3546,37.3546,0,0,0-24.4149,0,81.2737,81.2737,0,0,1-3.6048-9.303A47.3722,47.3722,0,0,1,47.812,5.7362Zm.72,47.549a1,1,0,0,0-.3608,1.5014l4.2539,5.6426c-22.9678-5.6113-36.0391-24.1963-43.02-39.0913l-.2212-.4741A11.0131,11.0131,0,0,1,9.0088,12.04a10.5585,10.5585,0,0,1,5.3081-5.5864,88.4187,88.4187,0,0,0,4.0366,10.2539c6.0274,12.9043,17.0625,28.93,35.8047,33.84Z" style="fill:#2f7ded"/><path d="M28.03,53.3628a54.4031,54.4031,0,0,1-16.4556,7.0664l4.2534-5.6426a1,1,0,0,0-.3608-1.5014L9.8384,50.5464A43.8238,43.8238,0,0,0,19.894,46.5093a1,1,0,1,0-.9677-1.75A41.7959,41.7959,0,0,1,6.6592,49.2231a1,1,0,0,0-.2466,1.8809L13.5,54.5522l-5.1484,6.83A1,1,0,0,0,9.15,62.9844a.97.97,0,0,0,.19-.0186,56.3785,56.3785,0,0,0,19.7691-7.9194A1,1,0,0,0,28.03,53.3628Z" style="fill:#2f7ded"/></g></svg>