<svg xmlns="http://www.w3.org/2000/svg" viewBox="0 0 64 64"><title>Artboard-2</title><g id="Plus_sign" data-name="Plus sign"><circle cx="32" cy="32" r="31" style="fill:#9ac3f4"/><circle cx="32" cy="32" r="26" style="fill:#fff"/><polygon points="28 45 28 36 19 36 19 28 28 28 28 19 36 19 36 28 45 28 45 36 36 36 36 45 28 45" style="fill:#9ac3f4"/><path d="M32,0A32,32,0,1,0,64,32,32.0361,32.0361,0,0,0,32,0Zm0,62A30,30,0,1,1,62,32,30.034,30.034,0,0,1,32,62Z" style="fill:#2f7ded"/><path d="M32,5A27,27,0,1,0,59,32,27.0308,27.0308,0,0,0,32,5Zm0,52A25,25,0,1,1,57,32,25.0281,25.0281,0,0,1,32,57Z" style="fill:#2f7ded"/><path d="M45,27H37V19a1,1,0,0,0-1-1H28a1,1,0,0,0-1,1v8H19a1,1,0,0,0-1,1v8a1,1,0,0,0,1,1h8v8a1,1,0,0,0,1,1h8a1,1,0,0,0,1-1V37h8a1,1,0,0,0,1-1V28A1,1,0,0,0,45,27Zm-1,8H36a1,1,0,0,0-1,1v8H29V36a1,1,0,0,0-1-1H20V29h8a1,1,0,0,0,1-1V20h6v8a1,1,0,0,0,1,1h8Z" style="fill:#2f7ded"/></g></svg>