<svg xmlns="http://www.w3.org/2000/svg" xmlns:xlink="http://www.w3.org/1999/xlink" width="165" height="137" viewBox="0 0 165 137"><defs><style>.a{fill:#fff;stroke:#707070;}.b{clip-path:url(#a);}.c{fill:#081e34;}.d{fill:#ebf0f2;}.e{fill:#bdd0d6;}.f{fill:#0092ff;}.g{fill:#093568;}.h{fill:#041d35;}.i{fill:#074584;}.j{fill:#00b1ff;}.k{fill:#a13a6d;}.l{fill:none;}</style><clipPath id="a"><rect class="a" width="165" height="137" transform="translate(189 2006)"/></clipPath></defs><g class="b" transform="translate(-189 -2006)"><g transform="translate(187.711 1988.777)"><path class="c" d="M98.845,96.229a1.854,1.854,0,0,1-1.854,1.854H70.586a1.854,1.854,0,0,1-1.854-1.854V80.169a1.856,1.856,0,0,1,1.854-1.854H96.992a1.856,1.856,0,0,1,1.854,1.854Z"/><circle class="d" cx="6.886" cy="6.886" r="6.886" transform="translate(81.817 81.314)"/><path class="e" d="M88.7,81.311a6.887,6.887,0,0,1,0,13.775"/><path class="d" d="M79.3,85.083a.523.523,0,0,1-.521.523h-6.43a.525.525,0,0,1-.529-.523V81.956a.527.527,0,0,1,.529-.526h6.43a.525.525,0,0,1,.521.526Z"/><path class="e" d="M71.821,81.956a.527.527,0,0,1,.529-.526h6.43a.525.525,0,0,1,.521.526v3.127a.523.523,0,0,1-.521.523"/><path class="c" d="M85.037,79.053A1.247,1.247,0,0,1,83.789,80.3h0a1.247,1.247,0,0,1-1.248-1.248V73.9a1.247,1.247,0,0,1,1.248-1.248h0A1.247,1.247,0,0,1,85.037,73.9Z"/><path class="c" d="M87.868,78.367a1.342,1.342,0,0,1-1.341,1.343H81.049a1.344,1.344,0,0,1-1.343-1.343h0a1.344,1.344,0,0,1,1.343-1.343h5.479a1.343,1.343,0,0,1,1.341,1.343Z"/><path class="f" d="M92.274,66.843H75.3a29.176,29.176,0,0,1-2.413,4.269,1.784,1.784,0,0,0,.962,2.7,35.834,35.834,0,0,0,19.872,0,1.784,1.784,0,0,0,.962-2.7A29.176,29.176,0,0,1,92.274,66.843Z"/><ellipse class="g" cx="32.75" cy="13.71" rx="32.75" ry="13.71" transform="translate(51.039 27.204)"/><path class="h" d="M116.539,40.915c0,7.575-14.664,13.71-32.75,13.71s-32.75-6.139-32.75-13.71"/><path class="g" d="M71.9,37.824a9.1,9.1,0,0,1-9.109,9.109c-5.022,0-41.111-4.079-41.111-9.109s36.089-9.1,41.111-9.1A9.1,9.1,0,0,1,71.9,37.824Z"/><path class="i" d="M62.788,28.72a9.1,9.1,0,0,1,9.109,9.1"/><path class="h" d="M71.9,37.824c0,5.03,5.86,15.732.83,15.732s-51.052-10.7-51.052-15.732"/><path class="h" d="M30.749,39.964a5.244,5.244,0,0,1-5.244,5.246h0a5.234,5.234,0,0,1-5.236-5.246V35.271a5.233,5.233,0,0,1,5.236-5.241h0a5.243,5.243,0,0,1,5.244,5.241Z"/><path class="g" d="M30.749,34.792a5.243,5.243,0,0,1-5.244,5.241h0a5.233,5.233,0,0,1-5.236-5.241V30.1a5.237,5.237,0,0,1,5.236-5.246h0A5.247,5.247,0,0,1,30.749,30.1Z"/><path class="h" d="M20.429,30.1a5.222,5.222,0,0,0,10.155,0,5.222,5.222,0,0,0-10.155,0Z"/><ellipse class="j" cx="24.214" cy="3.831" rx="24.214" ry="3.831" transform="translate(1.289 22.095)"/><ellipse class="f" cx="13.453" cy="3.831" rx="13.453" ry="3.831" transform="translate(12.053 22.095)"/><path class="k" d="M49.564,25.926a.666.666,0,0,1-.673.67H2.114a.667.667,0,0,1-.668-.67h0a.671.671,0,0,1,.668-.675H48.892a.672.672,0,0,1,.673.675Z"/><path class="h" d="M30.837,21.272c0,1.537,2.06,2.79.51,2.79H19.658c-1.542,0,.516-1.253.516-2.79h0a2.8,2.8,0,0,1,2.795-2.8h5.069a2.8,2.8,0,0,1,2.8,2.8Z"/><path class="g" d="M95.682,37.824a9.105,9.105,0,0,0,9.106,9.109c5.025,0,41.113-4.079,41.113-9.109s-36.089-9.1-41.113-9.1A9.1,9.1,0,0,0,95.682,37.824Z"/><path class="i" d="M104.79,28.72a9.1,9.1,0,0,0-9.106,9.1"/><path class="h" d="M95.682,37.824c0,5.03-5.86,15.732-.83,15.732S145.9,42.856,145.9,37.824"/><path class="h" d="M136.829,39.964a5.244,5.244,0,0,0,5.244,5.246h0a5.238,5.238,0,0,0,5.239-5.246V35.271a5.237,5.237,0,0,0-5.239-5.241h0a5.243,5.243,0,0,0-5.244,5.241Z"/><path class="g" d="M136.829,34.792a5.243,5.243,0,0,0,5.244,5.241h0a5.237,5.237,0,0,0,5.239-5.241V30.1a5.241,5.241,0,0,0-5.239-5.246h0a5.247,5.247,0,0,0-5.244,5.246Z"/><path class="h" d="M147.149,30.1a5.223,5.223,0,0,1-10.158,0,5.223,5.223,0,0,1,10.158,0Z"/><ellipse class="j" cx="24.216" cy="3.831" rx="24.216" ry="3.831" transform="translate(117.856 22.095)"/><ellipse class="f" cx="13.453" cy="3.831" rx="13.453" ry="3.831" transform="translate(128.62 22.095)"/><path class="k" d="M118.014,25.926a.666.666,0,0,0,.673.67h46.777a.667.667,0,0,0,.668-.67h0a.671.671,0,0,0-.668-.675H118.687a.672.672,0,0,0-.673.675Z"/><path class="h" d="M136.741,21.272c0,1.537-2.06,2.79-.51,2.79H147.92c1.542,0-.516-1.253-.516-2.79h0a2.8,2.8,0,0,0-2.795-2.8h-5.069a2.8,2.8,0,0,0-2.8,2.8Z"/><path class="c" d="M99.284,42.245h-5a2.589,2.589,0,0,0-1.97.915c-.7.825-3.9,2.05-8.531,2.05s-7.827-1.225-8.526-2.05a2.586,2.586,0,0,0-1.972-.915H68.295a2.576,2.576,0,0,0-2.578,2.578v5.283a2.605,2.605,0,0,0,.7,1.769,8.158,8.158,0,0,0,3.666,1.892c2.521.8,2.795,1.124,2.795,2.06,0,2.1-1.99,6.53-4.849,10.771a2.582,2.582,0,0,0,1.395,3.908,51.751,51.751,0,0,0,28.733,0A2.58,2.58,0,0,0,99.547,66.6c-2.854-4.241-4.847-8.67-4.847-10.771,0-.936.273-1.263,2.79-2.06a8.154,8.154,0,0,0,3.669-1.892,2.593,2.593,0,0,0,.7-1.769V44.823A2.57,2.57,0,0,0,99.284,42.245Z"/><path class="f" d="M89.051,31.659a.484.484,0,0,1-.485.485H79.009a.484.484,0,0,1-.485-.485h0a.484.484,0,0,1,.485-.485h9.557a.487.487,0,0,1,.485.485Z"/><path class="f" d="M89.051,34.56a.484.484,0,0,1-.485.485H79.009a.484.484,0,0,1-.485-.485h0a.484.484,0,0,1,.485-.485h9.557a.487.487,0,0,1,.485.485Z"/><path class="f" d="M89.051,37.46a.484.484,0,0,1-.485.485H79.009a.484.484,0,0,1-.485-.485h0a.484.484,0,0,1,.485-.485h9.557a.487.487,0,0,1,.485.485Z"/><path class="l" d="M60.815,58.681c-11.767,20.573-24.722,53.048-24.722,90.425h95.391c0-37.378-12.953-69.852-24.722-90.425"/></g></g></svg>