<svg xmlns="http://www.w3.org/2000/svg" viewBox="0 0 64 64"><title>Artboard-1</title><g id="Plus_Sign-2" data-name="Plus Sign"><rect x="21" y="11" width="28" height="8" style="fill:#9ac3f4"/><path d="M7,11V7H55.54a3.973,3.973,0,0,0,.0005,4.0005Z" style="fill:#fff"/><rect x="1" y="1" width="6" height="62" style="fill:#9ac3f4"/><circle cx="59" cy="9" r="4" style="fill:#9ac3f4"/><rect x="12" y="19" width="46" height="30" style="fill:#fff"/><path d="M21,45a5.0059,5.0059,0,0,0-5-5V28a5.0059,5.0059,0,0,0,5-5H49a5.0059,5.0059,0,0,0,5,5V40a5.0059,5.0059,0,0,0-5,5Z" style="fill:#9ac3f4"/><polygon points="33 40 33 36 29 36 29 32 33 32 33 28 37 28 37 32 41 32 41 36 37 36 37 40 33 40" style="fill:#fff"/><path d="M59,4a4.9785,4.9785,0,0,0-3.9744,2H8V1A1,1,0,0,0,7,0H1A1,1,0,0,0,0,1V63a1,1,0,0,0,2,0V2H6V63a1,1,0,0,0,2,0V12H20v6H12a1,1,0,0,0-1,1V49a1,1,0,0,0,1,1H58a1,1,0,0,0,1-1V19a1,1,0,0,0-1-1H50V12h5.0256A4.9915,4.9915,0,1,0,59,4ZM57,48H13V20H57ZM48,18H22V12H48ZM8,10V8H54.1011a4.9961,4.9961,0,0,0,0,2Zm51,2a3,3,0,1,1,3-3A3.033,3.033,0,0,1,59,12Z" style="fill:#2f7ded"/><path d="M21,22a1,1,0,0,0-1,1,4.0045,4.0045,0,0,1-4,4,1,1,0,0,0-1,1V40a1,1,0,0,0,1,1,4.0045,4.0045,0,0,1,4,4,1,1,0,0,0,1,1H49a1,1,0,0,0,1-1,4.0045,4.0045,0,0,1,4-4,1,1,0,0,0,1-1V28a1,1,0,0,0-1-1,4.0045,4.0045,0,0,1-4-4,1,1,0,0,0-1-1Zm32,6.9165v10.167A6.0147,6.0147,0,0,0,48.0835,44H21.9165A6.0147,6.0147,0,0,0,17,39.0835V28.9165A6.0147,6.0147,0,0,0,21.9165,24h26.167A6.0147,6.0147,0,0,0,53,28.9165Z" style="fill:#2f7ded"/><path d="M41,31H38V28a1,1,0,0,0-1-1H33a1,1,0,0,0-1,1v3H29a1,1,0,0,0-1,1v4a1,1,0,0,0,1,1h3v3a1,1,0,0,0,1,1h4a1,1,0,0,0,1-1V37h3a1,1,0,0,0,1-1V32A1,1,0,0,0,41,31Zm-1,4H37a1,1,0,0,0-1,1v3H34V36a1,1,0,0,0-1-1H30V33h3a1,1,0,0,0,1-1V29h2v3a1,1,0,0,0,1,1h3Z" style="fill:#2f7ded"/></g></svg>