<svg xmlns="http://www.w3.org/2000/svg" viewBox="0 0 64 64"><title>Artboard-7</title><g id="Stand_tube" data-name="Stand tube"><path d="M29,18V10a5.0625,5.0625,0,0,0,6,.0005V18Z" style="fill:#fff"/><rect x="29" y="26" width="6" height="27" style="fill:#fff"/><path d="M56,50a4.0045,4.0045,0,0,1-4-4V26h8V46A4.0045,4.0045,0,0,1,56,50Z" style="fill:#fff"/><path d="M56,50a4.0045,4.0045,0,0,1-4-4V31h8V46A4.0045,4.0045,0,0,1,56,50Z" style="fill:#9ac3f4"/><circle cx="32" cy="6" r="5" style="fill:#9ac3f4"/><rect x="52" y="10" width="8" height="8" style="fill:#fff"/><rect x="50" y="5" width="12" height="5" style="fill:#9ac3f4"/><rect x="39" y="20" width="10" height="4" style="fill:#fff"/><rect x="15" y="20" width="10" height="4" style="fill:#fff"/><path d="M15,58a5.0059,5.0059,0,0,1,5-5H44a5.0059,5.0059,0,0,1,5,5Z" style="fill:#9ac3f4"/><path d="M8,63V62a4.0045,4.0045,0,0,1,4-4H52a4.0045,4.0045,0,0,1,4,4v1Z" style="fill:#fff"/><rect x="49" y="18" width="14" height="8" style="fill:#9ac3f4"/><path d="M8,50a4.0045,4.0045,0,0,1-4-4V26h8V46A4.0045,4.0045,0,0,1,8,50Z" style="fill:#fff"/><path d="M8,50a4.0045,4.0045,0,0,1-4-4V31h8V46A4.0045,4.0045,0,0,1,8,50Z" style="fill:#9ac3f4"/><rect x="4" y="10" width="8" height="8" style="fill:#fff"/><rect x="2" y="5" width="12" height="5" style="fill:#9ac3f4"/><rect x="1" y="18" width="14" height="8" style="fill:#9ac3f4"/><rect x="25" y="18" width="14" height="8" style="fill:#9ac3f4"/><path d="M63,17H61V11h1a1,1,0,0,0,1-1V5a1,1,0,0,0-1-1H50a1,1,0,0,0-1,1v5a1,1,0,0,0,1,1h1v6H49a1,1,0,0,0-1,1v1H40V18a1,1,0,0,0-1-1H36V10.46a6,6,0,1,0-8,0V17H25a1,1,0,0,0-1,1v1H16V18a1,1,0,0,0-1-1H13V11h1a1,1,0,0,0,1-1V5a1,1,0,0,0-1-1H2A1,1,0,0,0,1,5v5a1,1,0,0,0,1,1H3v6H1a1,1,0,0,0-1,1v8a1,1,0,0,0,1,1H3V46a5,5,0,0,0,10,0V27h2a1,1,0,0,0,1-1V25h8v1a1,1,0,0,0,1,1h3V52H20a6.0046,6.0046,0,0,0-5.91,5H12a5.0059,5.0059,0,0,0-5,5v1a1,1,0,0,0,1,1H56a1,1,0,0,0,1-1V62a5.0059,5.0059,0,0,0-5-5H49.91A6.0046,6.0046,0,0,0,44,52H36V27h3a1,1,0,0,0,1-1V25h8v1a1,1,0,0,0,1,1h2V46a5,5,0,0,0,10,0V27h2a1,1,0,0,0,1-1V18A1,1,0,0,0,63,17ZM51,6H61V9H51Zm2,5h6v6H53ZM32,2a3.9914,3.9914,0,1,1-4,4A4.0045,4.0045,0,0,1,32,2Zm-2,9.6621A6.6562,6.6562,0,0,0,32,12a6.5016,6.5016,0,0,0,2-.3379V17H30ZM3,6H13V9H3Zm2,5h6v6H5ZM8,49a3.0033,3.0033,0,0,1-3-3V32h6v2H10a1,1,0,0,0,0,2h1v2H10a1,1,0,0,0,0,2h1v2H10a1,1,0,0,0,0,2h1v2A3.0033,3.0033,0,0,1,8,49Zm3-19H5V27h6Zm3-5H2V19H14Zm2-2V21h8v2ZM55,62H9a3.0033,3.0033,0,0,1,3-3H52A3.0033,3.0033,0,0,1,55,62Zm-7.1265-5H16.1265A4.0076,4.0076,0,0,1,20,54H44A4.0076,4.0076,0,0,1,47.8735,57ZM34,52H30V27h4Zm4-27H26V19H38Zm2-2V21h8v2ZM56,49a3.0033,3.0033,0,0,1-3-3V32h6v2H58a1,1,0,0,0,0,2h1v2H58a1,1,0,0,0,0,2h1v2H58a1,1,0,0,0,0,2h1v2A3.0033,3.0033,0,0,1,56,49Zm3-19H53V27h6Zm3-5H50V19H62Z" style="fill:#2f7ded"/></g></svg>