<svg xmlns="http://www.w3.org/2000/svg" viewBox="0 0 64 64"><title>Artboard-8</title><g id="Folder"><path d="M30,18l-5.6-7H58a4.0042,4.0042,0,0,1,4,4v3Z" style="fill:#9ac3f4"/><path d="M6,56a4.0045,4.0045,0,0,1-4-4V12A4.0045,4.0045,0,0,1,6,8H19.12a5.9762,5.9762,0,0,1,4.68,2.25L30,18H62V52a4.0042,4.0042,0,0,1-4,4Z" style="fill:#fff"/><circle cx="32" cy="37" r="12" style="fill:#9ac3f4"/><polygon points="30 44 30 39 25 39 25 35 30 35 30 30 34 30 34 35 39 35 39 39 34 39 34 44 30 44" style="fill:#fff"/><path d="M58,10H30a1,1,0,0,0,0,2H58a3.0033,3.0033,0,0,1,3,3V52a3.0033,3.0033,0,0,1-3,3H6a3.0033,3.0033,0,0,1-3-3V12A3.0033,3.0033,0,0,1,6,9H19.1162a4.9764,4.9764,0,0,1,3.9043,1.8765l6.1987,7.748A1,1,0,0,0,30,19H58a1,1,0,0,0,0-2H30.4805L24.582,9.6274A6.9639,6.9639,0,0,0,19.1162,7H6a5.0059,5.0059,0,0,0-5,5V52a5.0059,5.0059,0,0,0,5,5H58a5.0059,5.0059,0,0,0,5-5V15A5.0059,5.0059,0,0,0,58,10Z" style="fill:#2f7ded"/><path d="M29,30v4H25a1,1,0,0,0-1,1v4a1,1,0,0,0,1,1h4v4a1,1,0,0,0,1,1h4a1,1,0,0,0,1-1V40h4a1,1,0,0,0,1-1V35a1,1,0,0,0-1-1H35V30a1,1,0,0,0-1-1H30A1,1,0,0,0,29,30Zm2,5V31h2v4a1,1,0,0,0,1,1h4v2H34a1,1,0,0,0-1,1v4H31V39a1,1,0,0,0-1-1H26V36h4A1,1,0,0,0,31,35Z" style="fill:#2f7ded"/><path d="M19,37A13,13,0,1,0,32,24,13.0144,13.0144,0,0,0,19,37Zm24,0A11,11,0,1,1,32,26,11.0125,11.0125,0,0,1,43,37Z" style="fill:#2f7ded"/></g></svg>