<svg xmlns="http://www.w3.org/2000/svg" viewBox="0 0 64 64"><title>Artboard-34</title><g id="Temperature"><path d="M14,63a13,13,0,0,1,0-26c.17,0,.3369.0068.5039.0176l.45.0283L48.5146,3.4854a8.4853,8.4853,0,0,1,12,12L26.9561,49.0439l.0263.4483c.0108.18.0176.3428.0176.5078A13.015,13.015,0,0,1,14,63Z" style="fill:#fff"/><path d="M14,58a8,8,0,1,1,2.0791-15.72l.5586.1523L52.05,7.0205a3.4858,3.4858,0,1,1,4.93,4.93L21.5674,47.3623l.1523.5586A7.9823,7.9823,0,0,1,14,58Z" style="fill:#fff"/><path d="M14,58a8,8,0,1,1,2.0791-15.72l.5586.1523L40.5352,18.5352l4.93,4.93L21.5674,47.3623l.1523.5586A7.9823,7.9823,0,0,1,14,58Z" style="fill:#9ac3f4"/><path d="M61.2217,16.1924A9.4852,9.4852,0,0,0,47.8076,2.7783L14.5664,36.02C14.3789,36.0078,14.19,36,14,36A14,14,0,1,0,28,50c0-.1836-.0078-.3662-.02-.5664ZM26,50A12,12,0,1,1,14,38c.2646,0,.5244.02.8809.0449a.9623.9623,0,0,0,.7783-.29L49.2217,4.1924A7.4854,7.4854,0,1,1,59.8076,14.7783L26.2451,48.3408a1.213,1.213,0,0,0-.2832.875C25.9805,49.4756,26,49.7354,26,50Z" style="fill:#2f7ded"/><path d="M57.6865,12.6572a4.4857,4.4857,0,0,0-6.3437-6.3437L16.3408,41.3154a9.0243,9.0243,0,1,0,6.3438,6.3438Zm-4.93-4.93a2.5489,2.5489,0,0,1,3.5157,0,2.4908,2.4908,0,0,1,0,3.5157L45.4647,22.0507l-3.5154-3.5154Zm-32.15,39.98a7.0257,7.0257,0,1,1-4.3134-4.3134,1.003,1.003,0,0,0,1.0361-.2373L40.5353,19.9494l3.5153,3.5153L20.8438,46.6709A1,1,0,0,0,20.6064,47.707Z" style="fill:#2f7ded"/><path d="M48.707,33.293a1,1,0,0,0-1.414,1.414l5,5a1,1,0,0,0,1.414-1.414Z" style="fill:#2f7ded"/><path d="M52.707,29.293a1,1,0,0,0-1.414,1.414l3,3a1,1,0,0,0,1.414-1.414Z" style="fill:#2f7ded"/><path d="M56.707,25.293a1,1,0,0,0-1.414,1.414l5,5a1,1,0,0,0,1.414-1.414Z" style="fill:#2f7ded"/><path d="M44.707,37.293a1,1,0,0,0-1.414,1.414l3,3a1,1,0,0,0,1.414-1.414Z" style="fill:#2f7ded"/><path d="M40.707,41.293a1,1,0,0,0-1.414,1.414l5,5a1,1,0,0,0,1.414-1.414Z" style="fill:#2f7ded"/><path d="M36.707,45.293a1,1,0,0,0-1.414,1.414l3,3a1,1,0,0,0,1.414-1.414Z" style="fill:#2f7ded"/></g></svg>